<?xml version="1.0" encoding="UTF-8"?>
<svg id="Camada_2" data-name="Camada 2" xmlns="http://www.w3.org/2000/svg" viewBox="0 0 1148.47 211.7">
  <defs>
    <style>
      .cls-1 {
        fill: #0a2f66;
      }

      .cls-2 {
        fill: #0049a9;
      }
    </style>
  </defs>
  <g id="Camada_1-2" data-name="Camada 1">
    <g>
      <g>
        <path class="cls-1" d="M274.59,204.52c-10.12-4.43-18.07-10.71-23.85-18.84-5.79-8.13-8.67-17.62-8.67-28.46h33.07c.72,8.13,3.93,14.82,9.62,20.06,5.69,5.24,13.69,7.86,23.99,7.86s18.97-2.58,24.94-7.73,8.95-11.79,8.95-19.92c0-6.32-1.86-11.47-5.56-15.45-3.71-3.97-8.31-7.05-13.82-9.22-5.51-2.17-13.15-4.51-22.9-7.05-12.29-3.25-22.27-6.55-29.95-9.89-7.68-3.34-14.23-8.54-19.65-15.59-5.42-7.05-8.13-16.44-8.13-28.19,0-10.84,2.71-20.33,8.13-28.46s13.01-14.37,22.77-18.7,21.05-6.5,33.88-6.5c18.25,0,33.21,4.57,44.86,13.69,11.66,9.13,18.11,21.64,19.38,37.54h-34.15c-.54-6.87-3.79-12.74-9.76-17.62s-13.82-7.32-23.58-7.32c-8.86,0-16.09,2.26-21.69,6.78-5.6,4.52-8.4,11.02-8.4,19.52,0,5.79,1.76,10.53,5.29,14.23,3.52,3.71,8,6.64,13.42,8.81,5.42,2.17,12.83,4.52,22.23,7.05,12.47,3.44,22.63,6.87,30.49,10.3,7.86,3.43,14.54,8.72,20.06,15.86,5.51,7.14,8.27,16.67,8.27,28.6,0,9.58-2.58,18.61-7.73,27.11-5.15,8.5-12.65,15.32-22.5,20.46-9.85,5.15-21.46,7.73-34.83,7.73-12.65,0-24.04-2.21-34.15-6.64Z"/>
        <path class="cls-1" d="M409.44,94.06c6.23-11.56,14.73-20.55,25.48-26.97,10.75-6.41,22.63-9.62,35.64-9.62,11.75,0,22,2.3,30.77,6.91,8.76,4.61,15.76,10.35,21.01,17.21v-21.69h31.17v149.35h-31.17v-22.23c-5.24,7.05-12.38,12.92-21.41,17.62-9.04,4.7-19.34,7.05-30.9,7.05-12.83,0-24.58-3.29-35.24-9.89-10.66-6.59-19.11-15.81-25.34-27.65-6.23-11.83-9.35-25.25-9.35-40.25s3.12-28.28,9.35-39.85ZM515.96,107.61c-4.25-7.59-9.8-13.37-16.67-17.35-6.87-3.97-14.28-5.96-22.23-5.96s-15.36,1.94-22.23,5.83c-6.87,3.89-12.43,9.58-16.67,17.08-4.25,7.5-6.37,16.4-6.37,26.7s2.12,19.34,6.37,27.11c4.24,7.77,9.85,13.69,16.81,17.75,6.95,4.07,14.32,6.1,22.09,6.1s15.36-1.99,22.23-5.96c6.87-3.97,12.42-9.8,16.67-17.48,4.24-7.68,6.37-16.67,6.37-26.97s-2.13-19.25-6.37-26.83Z"/>
        <path class="cls-1" d="M656.78,85.11h-27.65v124.15h-31.17v-124.15h-17.62v-25.21h17.62v-10.57c0-17.17,4.56-29.68,13.69-37.54,9.12-7.86,23.45-11.79,42.96-11.79v25.75c-9.4,0-15.99,1.76-19.79,5.29-3.79,3.52-5.69,9.62-5.69,18.3v10.57h27.65v25.21Z"/>
        <path class="cls-1" d="M819.95,146.1h-114.12c.9,11.93,5.33,21.51,13.28,28.73,7.95,7.23,17.71,10.84,29.28,10.84,16.62,0,28.37-6.96,35.24-20.87h33.34c-4.52,13.74-12.7,24.98-24.53,33.75-11.84,8.77-26.52,13.15-44.05,13.15-14.28,0-27.06-3.21-38.36-9.62-11.3-6.41-20.15-15.45-26.56-27.11-6.42-11.66-9.62-25.16-9.62-40.52s3.12-28.87,9.35-40.52,15-20.64,26.29-26.97c11.29-6.32,24.26-9.49,38.9-9.49s26.65,3.08,37.68,9.22c11.02,6.14,19.61,14.77,25.75,25.89,6.14,11.11,9.22,23.9,9.22,38.35,0,5.6-.36,10.67-1.08,15.18ZM788.78,121.16c-.18-11.38-4.25-20.51-12.2-27.38-7.95-6.87-17.8-10.3-29.54-10.3-10.67,0-19.79,3.39-27.38,10.16-7.59,6.78-12.11,15.95-13.55,27.51h82.67Z"/>
        <path class="cls-2" d="M993.15,116.15c-5.6,9.85-13.87,17.67-24.8,23.45-10.94,5.79-24.17,8.67-39.71,8.67h-23.85v60.99h-60.18V17.35h84.03c23.49,0,41.52,5.96,54.08,17.89,12.56,11.93,18.84,27.92,18.84,47.98,0,12.11-2.8,23.09-8.4,32.93ZM940.57,83.22c0-11.74-6.23-17.62-18.7-17.62h-17.08v35.24h17.08c12.47,0,18.7-5.87,18.7-17.62Z"/>
        <path class="cls-2" d="M1080.71,65.33v23.58h59.63v45.27h-59.63v27.11h67.76v47.98h-127.94V17.35h127.94v47.98h-67.76Z"/>
      </g>
      <path class="cls-1" d="M179.53,40.04c-.22-4.01-3.33-7.27-7.33-7.66-17.16-1.68-29.9-5.04-44.41-10.43-11.83-4.39-22.98-10.91-31.17-19.44-3.2-3.33-8.53-3.33-11.74,0-8.19,8.53-19.35,15.05-31.17,19.44-14.51,5.39-27.25,8.75-44.41,10.43-4,.39-7.11,3.65-7.33,7.66-.93,17.3-1.98,39.93-1.98,54,0,24.54.51,50.56,14.34,70.83,8.55,12.53,21.09,21.92,34.58,28.85,12.52,6.42,25.94,10.88,39.35,15.16,1.61.51,3.35.51,4.96,0,13.42-4.28,26.83-8.73,39.35-15.16,13.5-6.93,26.03-16.32,34.58-28.85,13.83-20.27,14.34-46.29,14.34-70.83,0-14.07-1.05-36.7-1.98-54ZM99.89,113.53l1.69,19.29c.45,5.11-3.58,9.51-8.71,9.51h-4.23c-5.13,0-9.16-4.4-8.71-9.51l1.69-19.29c-6.7-3.35-11.3-10.28-11.3-18.28,0-11.29,9.15-20.43,20.43-20.43s20.43,9.15,20.43,20.43c0,8-4.6,14.93-11.3,18.28Z"/>
    </g>
  </g>
</svg>